<svg width="523" height="564" viewBox="0 0 523 564" fill="none" xmlns="http://www.w3.org/2000/svg">
<path d="M261.5 211.624C150.945 211.624 61.3093 301.187 61.3093 411.652C61.3093 446.363 70.166 479.015 85.7415 507.47H167.513L167.589 508.157L264.707 564L266.31 563.085L363.046 507.394H437.335C452.91 478.938 461.767 446.287 461.767 411.576C461.767 301.187 372.132 211.624 261.5 211.624Z" fill="#55606A"/>
<path d="M85.7415 507.47L158.198 471.92L374.193 470.852L437.335 507.47L424.126 545.538L85.7415 541.495V507.47Z" fill="#313C46"/>
<path d="M261.5 148.152C117.045 148.152 0 265.178 0 409.44C0 444.075 6.79519 477.184 19.0112 507.47H62.9891C48.9406 478.481 41.0765 445.982 41.0765 411.652C41.0765 290.048 139.798 191.408 261.5 191.408C383.202 191.408 481.924 290.048 481.924 411.652C481.924 445.982 474.059 478.481 460.011 507.47H503.989C516.281 477.184 523 444.075 523 409.44C523 265.102 405.955 148.152 261.5 148.152Z" fill="#0C1925"/>
<path d="M338.461 411.194H259.897H181.332V270.442H346.478C343.806 317.36 341.133 364.277 338.461 411.194Z" fill="#4C5965"/>
<path d="M452.758 68.8121L407.406 123.511L407.176 125.952L407.024 127.63L406.642 131.521L406.184 136.556C394.731 141.973 382.515 146.016 369.765 148.762C368.467 149.067 367.169 149.296 365.871 149.525C364.649 149.754 363.351 149.983 362.13 150.212C355.411 151.356 348.616 152.195 341.668 152.577C339.835 152.729 337.927 152.806 336.018 152.882C330.979 153.034 325.94 153.034 320.824 152.882C318.763 152.806 316.625 152.729 314.564 152.577C310.135 152.272 305.783 151.89 301.355 151.28C299.217 151.051 297.079 150.746 294.941 150.364C290.589 149.678 286.161 148.915 281.809 147.923C279.748 147.465 277.763 147.008 275.701 146.55C269.975 145.177 264.172 143.575 258.446 141.744C256.766 141.21 255.087 140.676 253.407 140.065C246.688 137.701 239.969 135.107 233.327 132.131C232.334 131.674 231.342 131.292 230.425 130.835C228.364 129.919 226.302 128.927 224.317 127.936C219.584 130.606 215.003 133.2 210.498 135.717C209.887 136.098 209.2 136.404 208.589 136.785C202.558 140.142 196.679 143.346 191.105 146.397C190.341 146.779 189.578 147.237 188.891 147.618C182.859 150.898 177.133 154.026 171.636 156.925C170.872 157.307 170.185 157.688 169.421 158.07C163.008 161.502 156.9 164.63 151.174 167.529C150.563 167.834 150.028 168.14 149.494 168.368C142.546 171.878 136.133 175.082 130.254 177.904L127.887 153.874L127.811 153.416V152.195L127.581 149.907L126.589 139.837L125.062 123.969L128.65 122.367L133.919 120.078L406.718 0L371.597 52.1813L362.741 65.3028L353.96 78.2719L373.811 76.3647L388.623 74.9915L452.758 68.8121Z" fill="#070604"/>
<path d="M349.15 414.093L346.478 415.467L346.86 411.194C347.623 412.186 348.387 413.102 349.15 414.093Z" fill="#A9B4BE"/>
<path d="M238.671 417.755C248.749 421.036 258.751 424.316 268.83 427.596C280.206 421.875 285.55 417.984 284.787 415.772C283.642 412.339 268.295 413.025 238.671 417.755Z" fill="#F78F1E"/>
<path d="M380.683 404.405L378.851 423.095C378.851 423.172 378.851 423.172 378.851 423.248L378.087 431.029L376.331 449.415L376.255 450.33L374.27 470.776L266.997 527.763L265.241 528.678L158.274 471.92L155.984 448.576L153.083 418.594L151.785 405.549L200.191 431.182L259.362 462.613L265.165 465.741L266.921 464.825L270.891 462.689L357.091 416.992L380.683 404.405Z" fill="white"/>
<path d="M365.871 149.525C364.649 149.754 363.351 149.983 362.13 150.212C355.411 151.356 348.616 152.195 341.668 152.577C339.835 152.729 337.927 152.806 336.094 152.882C331.055 153.034 326.016 153.034 320.901 152.882C318.839 152.806 316.701 152.729 314.64 152.577C310.212 152.272 305.86 151.89 301.431 151.28C299.293 151.051 297.156 150.746 295.018 150.364C290.666 149.678 286.238 148.915 281.886 147.923C279.824 147.465 277.839 147.008 275.778 146.55C270.051 145.177 264.249 143.575 258.522 141.744C256.843 141.21 255.163 140.676 253.483 140.065C246.764 137.701 240.046 135.107 233.403 132.131C232.411 131.674 231.418 131.292 230.502 130.835C228.44 129.919 226.379 128.927 224.394 127.936C219.66 130.606 215.079 133.2 210.574 135.717C209.964 136.098 209.276 136.404 208.666 136.785C202.558 140.142 196.755 143.346 191.181 146.397C190.418 146.779 189.731 147.237 188.967 147.618C182.935 150.898 177.209 154.026 171.712 156.925C170.948 157.307 170.261 157.688 169.498 158.07C163.084 161.502 156.976 164.63 151.25 167.529C150.639 167.834 150.105 168.14 149.57 168.368C142.622 171.878 136.285 175.082 130.33 177.904L130.483 179.583L130.635 181.032L130.865 183.626L133.002 205.521L133.537 210.632L135.14 227.187L135.827 234.358L136.973 246.106L137.202 248.242L124.909 249.158L120.099 249.539L121.244 260.983L121.855 267.238L123 278.834L123.688 285.624L124.757 295.999L124.909 297.754L142.546 303.094L142.622 303.857L144.073 319.038L144.608 324.836L145.524 334.296L146.211 341.085L146.287 342.306L147.051 350.24L147.891 358.861L148.731 367.329L149.876 379.001L151.25 393.572L151.708 398.607L154.686 400.209L159.649 402.803L172.17 409.44L174.461 410.66L177.591 412.339L189.044 418.442L194.693 421.417L200.038 424.24L205.993 427.367L211.643 430.343L223.401 436.598L228.746 439.421L241.954 446.44L246.612 448.957L259.21 455.671L262.34 457.273L265.088 458.722L266.081 458.188L266.768 457.807L270.738 455.671L287.917 446.592L300.668 439.802L317.388 430.953L324.26 427.291L326.398 426.147L333.346 422.485L346.402 415.543L346.783 411.271L348.158 395.632L348.692 389.834L363.351 221.694L363.58 219.024L366.253 189.043L367.398 175.768L369.765 148.762C368.467 148.991 367.169 149.22 365.871 149.525ZM333.117 399.599L332.582 405.854C329.375 405.473 326.092 405.091 322.733 404.71C321.359 404.557 320.061 404.405 318.686 404.328C314.334 403.947 309.906 403.566 305.325 403.26C304.714 403.184 304.027 403.184 303.34 403.108C298.912 402.803 294.483 402.574 289.826 402.421C289.521 402.421 289.215 402.421 288.91 402.421C284.481 402.269 279.977 402.116 275.396 402.116C275.243 402.116 275.014 402.116 274.785 402.116C272.265 402.116 269.669 402.04 267.074 402.04H266.768C264.936 402.04 263.103 402.04 261.271 402.04C260.966 402.04 260.66 402.04 260.431 402.04C255.926 402.116 251.422 402.192 246.993 402.345C246.383 402.345 245.772 402.421 245.161 402.421C240.656 402.574 236.228 402.803 231.876 403.032C230.578 403.108 229.28 403.184 228.059 403.26C223.63 403.566 219.355 403.947 215.155 404.328C212.636 404.557 210.116 404.862 207.673 405.091C203.474 405.549 199.427 406.083 195.533 406.617C194.083 406.846 192.708 406.999 191.334 407.227L190.647 399.293L189.502 385.561L189.12 381.366L189.044 379.992L187.822 364.964L182.706 303.857L182.63 302.712L180.263 274.562C194.846 277.766 213.17 280.207 233.785 281.58C234.243 281.58 234.701 281.657 235.235 281.657C241.649 282.038 248.368 282.343 255.163 282.572C258.98 282.648 262.874 282.725 266.845 282.801C268.295 282.801 269.746 282.801 271.12 282.801C279.061 282.801 286.772 282.648 294.254 282.343C295.552 282.267 296.927 282.267 298.225 282.191C299.064 282.114 299.904 282.114 300.82 282.038C315.938 281.275 329.91 279.902 342.355 278.147C342.584 278.681 342.813 279.215 343.042 279.673L341.439 298.44L340.904 304.543L339.835 317.131L333.422 394.335L333.117 399.599Z" fill="#D6E3EF"/>
<path d="M408.169 249.616L408.093 250.455L407.1 260.296L406.489 266.475L405.42 276.851L403.893 292.032L403.512 295.77L403.283 297.83L389.998 301.873L389.463 307.061V307.213L388.242 319.801L388.165 320.259L387.707 325.065L386.944 332.77L386.791 334.067L386.027 341.467L385.569 346.349L385.34 349.096L384.195 360.997L383.737 366.108L382.668 377.322L381.752 386.324L381.523 388.842L380.759 396.242L380.683 397.386L372.132 401.963L365.031 405.702L357.014 409.974L356.404 410.279L349.15 414.093C348.387 413.102 347.623 412.186 346.86 411.194L348.234 395.555L348.768 389.757L363.428 221.618L363.657 218.948L366.329 188.966L367.474 175.692L369.841 148.686C382.592 145.94 394.808 141.82 406.26 136.48L404.962 149.907L402.977 169.665L402.595 173.175L401.221 187.517L400.305 197.205L399.541 205.368L398.167 219.176L396.411 237.638L395.342 248.624L396.182 248.7L408.169 249.616Z" fill="#A9B4BE"/>
<path d="M310.059 371.982C308.761 377.704 307.387 383.425 306.089 389.147C305.554 389.147 305.096 389.147 304.562 389.147C305.707 383.349 306.928 377.627 308.074 371.83C307.768 371.83 306.928 371.753 306.623 371.753C297.156 371.296 287.688 370.914 278.297 370.533L276.617 386.706C276.083 386.629 275.472 386.553 274.938 386.477C275.167 381.137 275.396 375.797 275.701 370.456C274.403 370.456 272.723 370.456 270.738 370.456C269.669 370.456 268.372 370.456 266.615 370.456C263.027 370.456 259.439 370.533 255.01 370.685C253.178 370.761 250.582 370.838 247.604 370.99L248.673 387.621C247.986 387.698 247.223 387.774 246.535 387.85L245.008 371.067C238.9 371.372 232.64 371.753 226.226 372.364C223.936 372.592 221.721 372.821 219.431 373.05C220.271 378.467 221.034 383.883 221.874 389.3C221.263 389.528 220.653 389.681 220.042 389.91L216.988 373.355C208.36 374.347 200.42 375.568 193.09 376.941L193.319 380.221L195.075 402.955C215.003 399.599 239.74 397.615 266.539 397.539H266.845C289.521 397.539 310.746 398.988 328.765 401.429L330.673 377.704L330.979 374.194C327.696 373.737 324.26 373.355 320.748 372.974C317.159 372.592 313.571 372.287 310.059 371.982Z" fill="white"/>
<path d="M319.145 355.885C319.145 359.7 317.618 363.285 314.945 366.489C303.035 365.65 290.513 365.116 277.534 364.964C274.709 364.964 271.884 364.887 269.059 364.887C267.303 364.887 265.547 364.887 263.867 364.887C258.828 364.887 253.865 365.04 248.979 365.192C236.152 365.574 223.783 366.337 212.178 367.405C209.047 364.048 207.215 360.081 207.215 355.885C207.215 343.221 223.63 332.999 243.863 332.999C250.964 332.999 257.53 334.219 263.18 336.432C268.753 334.219 275.396 332.999 282.496 332.999C302.729 332.999 319.145 343.298 319.145 355.885Z" fill="#7A8793"/>
<path d="M298.912 285.471C296.85 285.624 294.789 285.7 292.727 285.776C285.627 286.158 278.373 286.31 270.891 286.387C269.517 286.387 268.142 286.387 266.845 286.387C263.103 286.387 259.515 286.387 255.85 286.31C249.437 286.158 243.176 285.929 237.068 285.624C236.61 285.624 236.152 285.547 235.694 285.547C216.301 284.403 199.045 282.114 185.226 279.063L187.669 306.603C188.127 306.679 188.509 306.756 188.967 306.832C199.809 308.815 210.269 310.112 220.424 311.028C220.347 304.543 220.347 298.135 220.271 291.65C220.805 291.65 221.416 291.65 221.951 291.65L222.027 311.18C231.8 312.019 241.191 312.477 250.429 312.63C250.658 306.374 250.887 300.195 251.116 293.939C251.727 293.939 252.338 293.939 253.025 293.939C253.025 300.195 253.025 306.374 252.949 312.63C260.966 312.63 266.768 312.706 266.997 312.706C267.226 312.706 267.379 312.706 267.379 312.706C267.455 312.706 267.532 312.706 267.532 312.706C272.647 312.63 277.61 312.553 282.42 312.401L281.427 292.947C281.886 292.871 282.344 292.871 282.878 292.795C283.413 299.279 284.023 305.84 284.558 312.325C288.604 312.172 292.727 311.943 296.927 311.638C301.049 311.333 305.02 311.028 308.99 310.723C309.295 304.009 309.601 297.372 309.906 290.659C310.441 290.659 310.975 290.659 311.509 290.659L310.67 310.57C320.137 309.655 328.841 308.51 336.858 307.29L337.316 301.263L338.614 282.877C325.558 283.793 312.273 284.708 298.912 285.471Z" fill="white"/>
<path d="M329.375 243.589L311.739 242.292L314.182 214.141L331.819 215.438L329.375 243.589Z" fill="black"/>
<path d="M344.416 186.601L343.042 202.927L299.141 199.647L300.515 183.397L344.416 186.601Z" fill="black"/>
<path d="M184.157 187.288L185.608 203.614L229.509 200.333L228.059 184.084L184.157 187.288Z" fill="black"/>
<path d="M340.294 251.828L297.766 248.7L297.995 245.877L340.523 249.005L340.294 251.828Z" fill="black"/>
<path d="M201.26 244.123L218.897 242.826L216.453 214.675L198.816 215.972L201.26 244.123Z" fill="black"/>
<path d="M190.341 252.362L232.869 249.234L232.64 246.335L190.112 249.539L190.341 252.362Z" fill="black"/>
<path d="M378.087 431.029L376.789 446.211L376.713 446.974C367.856 458.951 344.264 462.842 333.04 464.215C359.076 449.262 369.918 440.184 374.728 434.539C375.338 433.852 376.713 432.097 378.087 431.029Z" fill="black"/>
<path d="M333.04 443.159C347.623 435.759 353.655 431.258 356.327 428.436C356.862 427.901 358.694 425.918 359.458 426.299C360.526 426.757 359.381 430.877 358.847 432.174C355.869 440.108 340.065 442.396 333.04 443.159Z" fill="black"/>
<path d="M250.964 115.653C250.276 116.874 266.921 128.393 284.176 134.725C324.794 149.602 368.849 135.641 368.62 134.115C368.543 133.352 356.633 136.175 333.804 134.573C299.981 132.208 270.28 121.985 265.928 120.459C257.53 117.56 251.422 114.89 250.964 115.653Z" fill="white"/>
<path d="M361.061 27.6927C349.761 37.1524 338.537 46.6885 327.238 56.1482L313.113 50.5792L361.061 27.6927Z" fill="white"/>
<path d="M416.72 105.736C413.743 108.635 410.689 111.61 407.711 114.509C406.337 114.051 404.962 113.593 403.588 113.212L416.72 105.736Z" fill="white"/>
<path d="M246.841 415.924C249.284 409.974 285.016 413.788 285.779 419.586C286.238 423.248 273.258 430.8 260.813 427.367C253.101 425.308 245.543 419.052 246.841 415.924Z" fill="#A8B4BE"/>
<path d="M216.606 458.646L265.547 475.353L315.861 458.646V505.182L265.318 491.145L216.606 505.182V458.646Z" fill="black"/>
</svg>
